<svg width="24" height="24" viewBox="0 0 24 24" fill="none" xmlns="http://www.w3.org/2000/svg">
<circle cx="12" cy="12" r="1" fill="#33363F"/>
<path d="M15 12C15 14.6668 14.5658 17.035 13.9 18.6997C13.5659 19.5348 13.1932 20.1435 12.8304 20.527C12.4697 20.9085 12.1887 21 12 21C11.8113 21 11.5303 20.9085 11.1696 20.527C10.8068 20.1435 10.4341 19.5348 10.1 18.6997C9.43419 17.035 9 14.6668 9 12C9 9.33323 9.43419 6.96497 10.1 5.30032C10.4341 4.46523 10.8068 3.85653 11.1696 3.47296C11.5303 3.0915 11.8113 3 12 3C12.1887 3 12.4697 3.0915 12.8304 3.47296C13.1932 3.85653 13.5659 4.46523 13.9 5.30032C14.5658 6.96497 15 9.33323 15 12Z" stroke="#33363F" stroke-width="2"/>
<path d="M13.5 14.5981C11.1905 15.9315 8.92246 16.7396 7.14791 16.9952C6.25768 17.1235 5.54415 17.105 5.0306 16.9827C4.51988 16.861 4.30015 16.6634 4.2058 16.5C4.11144 16.3366 4.0502 16.0475 4.20018 15.5443C4.35099 15.0384 4.69176 14.4113 5.24796 13.7044C6.35665 12.2955 8.19053 10.7353 10.5 9.40191C12.8095 8.06853 15.0776 7.26042 16.8521 7.00475C17.7424 6.87648 18.4559 6.89494 18.9694 7.0173C19.4802 7.13899 19.6999 7.33656 19.7943 7.49999C19.8886 7.66342 19.9499 7.95249 19.7999 8.45564C19.6491 8.96157 19.3083 9.58872 18.7521 10.2956C17.6434 11.7045 15.8095 13.2647 13.5 14.5981Z" stroke="#33363F" stroke-width="2"/>
<path d="M13.5 9.40193C11.1905 8.06855 8.92246 7.26044 7.14791 7.00477C6.25768 6.8765 5.54415 6.89496 5.0306 7.01732C4.51988 7.13901 4.30015 7.33658 4.2058 7.50001C4.11144 7.66344 4.0502 7.95251 4.20018 8.45566C4.35099 8.96159 4.69176 9.58874 5.24796 10.2956C6.35665 11.7045 8.19053 13.2647 10.5 14.5981C12.8095 15.9315 15.0776 16.7396 16.8521 16.9953C17.7424 17.1235 18.4559 17.1051 18.9694 16.9827C19.4802 16.861 19.6999 16.6634 19.7943 16.5C19.8886 16.3366 19.9499 16.0475 19.7999 15.5444C19.6491 15.0384 19.3083 14.4113 18.7521 13.7044C17.6434 12.2955 15.8095 10.7353 13.5 9.40193Z" stroke="#33363F" stroke-width="2"/>
</svg>
