<svg width="120" height="60" viewBox="0 0 120 60" fill="none" xmlns="http://www.w3.org/2000/svg">
<g clip-path="url(#clip0_197_26)">
<rect width="120" height="60" fill="#575757"/>
<path d="M13.3177 52.7865C12.9693 52.6318 12.6203 52.484 12.2706 52.3426C12.3543 52.1018 12.4314 51.8602 12.5085 51.6188C13.7109 47.725 13.4784 44.4802 11.7601 43.2518C10.104 42.0765 7.14365 42.8478 4.00818 45.0887C3.69782 45.3077 3.39283 45.5407 3.10117 45.775C2.93788 45.5845 2.76794 45.3931 2.59735 45.2085C-0.176203 42.2236 -3.10661 40.7977 -5.02836 41.6823C-6.87231 42.5274 -7.68169 45.4835 -7.31046 49.3135C-7.27308 49.6938 -7.2284 50.0681 -7.17102 50.4504C-7.60918 50.5293 -8.04195 50.6223 -8.44869 50.7243C-12.1268 51.6147 -14.8672 53.3152 -15.061 55.3282C-15.2613 57.4079 -12.7426 59.7561 -9.16513 61.3788C-8.87481 61.5078 -8.58447 61.6365 -8.28621 61.7527C-8.4247 62.143 -8.54922 62.5279 -8.66836 62.9268C-9.72446 66.5588 -9.46028 69.5443 -7.81081 70.719C-6.11122 71.9321 -2.98245 71.1581 0.212233 68.8611C0.465437 68.6768 0.719258 68.4861 0.974377 68.2819C1.24006 68.5968 1.52037 68.8996 1.80131 69.1957C4.418 71.9234 7.14191 73.1881 8.97855 72.3491C10.8784 71.4825 11.7685 68.3862 11.3784 64.4736C11.3466 64.1746 11.3088 63.8682 11.265 63.5545C11.4841 63.5151 11.6972 63.4684 11.9102 63.4215C15.8788 62.5188 18.8634 60.7274 19.0669 58.6144C19.2613 56.5947 16.8238 54.3821 13.3177 52.7865ZM4.84407 46.259C7.53162 44.3381 9.9261 43.7143 10.9209 44.4223C11.9851 45.1773 12.1667 47.832 11.1297 51.1967C11.0612 51.4189 10.9933 51.6343 10.9122 51.8485C9.46449 51.3728 7.98784 50.9884 6.49425 50.71C5.7471 49.3868 4.91483 48.1091 3.99551 46.8972C4.27921 46.6756 4.55498 46.4667 4.84407 46.259ZM-5.0349 58.0293C-4.78477 58.6454 -4.52732 59.2555 -4.24924 59.8608C-3.96513 60.4734 -3.67436 61.0867 -3.36231 61.6886C-4.39121 61.475 -5.40836 61.2092 -6.40701 60.8909C-6.0213 59.9593 -5.55906 59.0014 -5.0349 58.0293ZM-4.71014 54.6565C-5.03444 53.6229 -5.29401 52.6157 -5.4968 51.6476C-4.51641 51.5267 -3.47989 51.4516 -2.40722 51.4204C-2.81377 51.9396 -3.21494 52.4728 -3.59675 53.0146C-3.97792 53.5497 -4.35371 54.0988 -4.71014 54.6565ZM-4.11264 56.4161C-3.58414 55.5386 -3.01757 54.6849 -2.42562 53.8472C-1.83368 53.0095 -1.2043 52.2022 -0.54955 51.4109C0.457355 51.4338 1.48105 51.4919 2.52089 51.592C3.56072 51.6921 4.58336 51.8311 5.56947 52.0001C6.05518 52.8945 6.5123 53.8063 6.94082 54.7356C7.36936 55.6649 7.76263 56.611 8.12796 57.5678C7.5928 58.4447 7.02559 59.305 6.42633 60.1487C5.83438 60.9865 5.21168 61.7943 4.56295 62.593C3.56271 62.5707 2.52633 62.5045 1.47983 62.4038C0.433336 62.303 -0.576631 62.1722 -1.5507 62.0178C-2.04909 61.1154 -2.51223 60.1963 -2.94012 59.2603C-3.36801 58.3244 -3.75462 57.3789 -4.11264 56.4161ZM7.59681 60.988C7.99324 60.4342 8.37031 59.8717 8.74136 59.302C9.07489 60.3096 9.35382 61.3254 9.58352 62.3633C8.52789 62.4971 7.46406 62.5763 6.39934 62.5949C6.81319 62.0697 7.20834 61.5292 7.59681 60.988ZM9.04766 55.9812C8.79085 55.3645 8.52739 54.7471 8.2493 54.1418C7.97724 53.5438 7.69121 52.9511 7.39121 52.3639C8.45152 52.6006 9.4607 52.8793 10.3994 53.1917C9.99776 54.1487 9.5454 55.0739 9.04766 55.9812ZM2.89748 47.8207C3.52419 48.648 4.10707 49.5114 4.64072 50.397C3.32671 50.2099 2.00026 50.0822 0.67469 50.0151C1.41071 49.2181 2.16096 48.4831 2.89748 47.8207ZM-4.44118 42.9902C-3.25846 42.4448 -0.862038 43.6173 1.53418 46.1892C1.68669 46.352 1.83793 46.528 1.99583 46.7046C0.855483 47.7183 -0.211942 48.813 -1.20452 49.9687C-2.72378 49.957 -4.23933 50.0465 -5.75055 50.2306C-5.80447 49.8823 -5.84441 49.5287 -5.88436 49.175C-6.20028 45.8885 -5.55275 43.4953 -4.44118 42.9902ZM-7.7661 60.4035C-8.03836 60.2966 -8.3033 60.1835 -8.56761 60.0639C-9.94438 59.4806 -11.4894 58.6188 -12.5667 57.5799C-13.195 57.0485 -13.5789 56.285 -13.6279 55.4663C-13.5105 54.2464 -11.2539 52.8895 -8.11238 52.1224C-7.7196 52.0256 -7.32144 51.9428 -6.92393 51.8668C-6.60995 53.3569 -6.20007 54.8293 -5.69906 56.2634C-6.4731 57.5948 -7.16497 58.9813 -7.7661 60.4035ZM-0.622999 67.6841C-1.81974 68.5847 -3.16989 69.262 -4.60896 69.6751C-5.38286 69.9571 -6.23927 69.9083 -6.97027 69.5352C-7.97105 68.82 -8.18442 66.4246 -7.27965 63.3163C-7.17038 62.95 -7.05446 62.5845 -6.92584 62.2269C-5.46355 62.6906 -3.9783 63.0556 -2.46279 63.3159C-1.70296 64.6471 -0.851331 65.9333 0.074011 67.1526C-0.159197 67.3388 -0.391731 67.518 -0.622999 67.6841ZM1.16604 66.2216C0.556744 65.423 -0.0448441 64.5443 -0.62066 63.6075C0.016773 63.6948 0.675271 63.7728 1.34183 63.837C2.02839 63.9031 2.70298 63.9537 3.37266 63.9855C2.67792 64.7729 1.94038 65.5158 1.16604 66.2216ZM9.68543 69.0602C9.54714 69.8676 9.07403 70.589 8.38471 71.0406C7.26583 71.5518 5.08321 70.5344 2.84514 68.2064C2.58829 67.9395 2.33337 67.6526 2.07242 67.3584C3.20072 66.3301 4.25546 65.2274 5.22932 64.0564C6.76793 64.0769 8.31016 63.9898 9.84265 63.7943C9.88299 64.074 9.91666 64.3531 9.94431 64.6248C10.1323 66.0961 10.0412 67.6009 9.68543 69.0602ZM11.5885 62.0114C11.3961 62.0535 11.2037 62.0955 11.0053 62.1301C10.6786 60.6321 10.2421 59.1571 9.71503 57.7138C10.4859 56.4156 11.1606 55.0678 11.7518 53.6784C12.0888 53.8118 12.4118 53.9506 12.7215 54.0879C15.725 55.4535 17.7519 57.2498 17.635 58.4629C17.5092 59.7694 15.0206 61.2319 11.5885 62.0114ZM2.29431 53.9451C3.9807 54.1075 5.21558 55.6055 5.0532 57.2919C4.89082 58.9783 3.39279 60.2132 1.7064 60.0508C0.020001 59.8884 -1.21487 58.3904 -1.05249 56.704C-0.890109 55.0176 0.607911 53.7828 2.29431 53.9451Z" fill="url(#paint0_linear_197_26)"/>
<g clip-path="url(#clip1_197_26)">
<path d="M10.1833 21.4187C10.0133 21.4264 9.84432 21.4369 9.67634 21.45C9.66395 21.3398 9.64875 21.2306 9.63356 21.1215C9.37234 19.3696 8.65722 18.1505 7.72955 18.007C6.83709 17.8721 5.79191 18.7502 4.95762 20.2351C4.87449 20.3809 4.79623 20.5313 4.72357 20.6795C4.62128 20.6371 4.51615 20.5956 4.41205 20.557C2.72274 19.9348 1.26883 19.9509 0.663849 20.6705C0.0826476 21.3595 0.322657 22.6693 1.20577 24.0894C1.29368 24.2303 1.38337 24.3675 1.47971 24.5053C1.31826 24.6215 1.16167 24.7421 1.01731 24.8612C-0.294318 25.9257 -1.07288 27.123 -0.765453 27.9452C-0.447847 28.7947 1.01681 29.2184 2.76916 29.1529C2.91085 29.1465 3.0525 29.14 3.19495 29.1271C3.21389 29.3062 3.23744 29.4805 3.26583 29.6592C3.53587 31.2806 4.2141 32.3924 5.10375 32.5284C6.02095 32.6696 7.13349 31.7576 7.9809 30.2393C8.04764 30.1181 8.1134 29.9943 8.1771 29.8649C8.34446 29.9358 8.51541 29.9991 8.68533 30.0597C10.2622 30.6122 11.602 30.5736 12.1814 29.8884C12.781 29.1801 12.5467 27.7999 11.6401 26.3513C11.5701 26.241 11.4962 26.1289 11.4184 26.0152C11.4992 25.9571 11.5761 25.8974 11.6529 25.8375C13.0793 24.7116 13.9388 23.4313 13.6161 22.5682C13.3077 21.7432 11.9017 21.3565 10.1833 21.4187ZM5.51859 20.5281C6.23368 19.2552 7.07909 18.545 7.61553 18.6269C8.18898 18.7135 8.7706 19.7125 8.99711 21.226C9.01206 21.326 9.02599 21.4231 9.0343 21.5224C8.35983 21.6195 7.69118 21.7577 7.03601 21.9406C6.48151 21.5707 5.90144 21.2352 5.29887 20.9423C5.37076 20.8006 5.44186 20.6654 5.51859 20.5281ZM3.792 27.0419C4.01079 27.2332 4.23137 27.4207 4.45936 27.6024C4.69118 27.7857 4.9258 27.9679 5.16682 28.1416C4.7113 28.2591 4.25051 28.3539 3.78714 28.4247C3.76414 27.9864 3.76696 27.523 3.792 27.0419ZM3.2769 25.6642C2.94827 25.3247 2.65077 24.9829 2.38364 24.6452C2.75555 24.4068 3.15885 24.1754 3.5851 23.9539C3.52072 24.2356 3.46119 24.5216 3.41109 24.8072C3.35999 25.0901 3.31372 25.3774 3.2769 25.6642ZM3.85467 26.2334C3.89957 25.7883 3.96439 25.3451 4.04247 24.9032C4.12056 24.4613 4.21957 24.0239 4.33186 23.5878C4.74199 23.4003 5.16563 23.2233 5.60382 23.0594C6.042 22.8956 6.4807 22.7503 6.91043 22.6238C7.27745 22.8775 7.63629 23.1437 7.98695 23.4222C8.3376 23.7008 8.67727 23.9927 9.00774 24.2943C8.96002 24.7404 8.89623 25.1863 8.81635 25.632C8.73826 26.0739 8.64206 26.5102 8.5336 26.948C8.12628 27.1344 7.69598 27.3108 7.25498 27.4757C6.81399 27.6406 6.38195 27.7866 5.95988 27.9165C5.58622 27.6621 5.22356 27.3942 4.87188 27.113C4.5202 26.8317 4.18334 26.5387 3.85467 26.2334ZM9.44875 25.7307C9.50242 25.4376 9.54664 25.1448 9.58705 24.8504C9.91442 25.178 10.2214 25.5194 10.5127 25.8791C10.1129 26.1371 9.69945 26.3756 9.27397 26.5905C9.34014 26.3051 9.39585 26.0174 9.44875 25.7307ZM9.07448 23.4966C8.85288 23.3064 8.62847 23.1172 8.40048 22.9356C8.17632 22.7556 7.94755 22.5804 7.71419 22.4101C8.18679 22.2955 8.64684 22.2073 9.08491 22.1459C9.10637 22.5972 9.10127 23.0459 9.07448 23.4966ZM5.03328 21.5164C5.44427 21.7165 5.84451 21.9392 6.22915 22.1802C5.66383 22.3637 5.10485 22.5726 4.55786 22.8051C4.70181 22.351 4.86335 21.9182 5.03328 21.5164ZM1.15094 21.0656C1.52307 20.6223 2.7133 20.6117 4.17146 21.1466C4.2641 21.1802 4.35874 21.2193 4.4562 21.2573C4.19082 21.8748 3.97035 22.5096 3.79172 23.1536C3.17728 23.4454 2.5837 23.7759 2.01001 24.1425C1.92158 24.0173 1.83774 23.8873 1.75391 23.7573C0.997176 22.5382 0.799769 21.4793 1.15094 21.0656ZM3.14613 28.4999C3.01595 28.5114 2.88754 28.519 2.75813 28.5239C2.09163 28.5652 1.30397 28.5308 0.670912 28.3361C0.315956 28.2516 0.0150074 28.0289 -0.161535 27.7195C-0.347825 27.2212 0.301583 26.2522 1.42059 25.3404C1.56033 25.2261 1.70491 25.1162 1.85054 25.009C2.26245 25.5284 2.7096 26.0222 3.18615 26.4833C3.12925 27.1532 3.11599 27.8284 3.14613 28.4999ZM7.41892 29.9436C7.10917 30.528 6.69482 31.0553 6.19404 31.497C5.9362 31.7579 5.58175 31.9059 5.21574 31.9032C4.67548 31.8197 4.13074 30.9279 3.90001 29.5401C3.8739 29.376 3.8506 29.211 3.83394 29.0465C4.512 28.942 5.1804 28.7945 5.84094 28.6003C6.40208 28.9708 6.99159 29.3059 7.59799 29.6005C7.53968 29.7185 7.4803 29.8337 7.41892 29.9436ZM7.85974 29.0247C7.46125 28.8323 7.05055 28.6073 6.63911 28.3546C6.91268 28.2642 7.19298 28.1661 7.47387 28.0611C7.76318 27.953 8.04471 27.8411 8.32065 27.7228C8.19151 28.1652 8.03658 28.5986 7.85974 29.0247ZM11.8364 28.4689C11.9353 28.8105 11.8828 29.1839 11.6915 29.4943C11.3386 29.9118 10.2642 29.9411 8.91648 29.4706C8.76185 29.4166 8.60418 29.3546 8.44268 29.2908C8.70041 28.67 8.91425 28.0346 9.08241 27.3883C9.70632 27.0961 10.3111 26.7613 10.8912 26.3862C10.961 26.4873 11.028 26.5895 11.0912 26.69C11.4487 27.2266 11.7003 27.8308 11.8364 28.4689ZM11.2533 25.3508C11.1838 25.4048 11.1143 25.4587 11.041 25.5108C10.6224 24.9908 10.164 24.5012 9.67522 24.0416C9.73721 23.3853 9.75096 22.7285 9.7231 22.0717C9.88446 22.058 10.0412 22.049 10.1923 22.0421C11.6641 21.9884 12.8249 22.293 13.0102 22.7885C13.2097 23.3221 12.4869 24.3775 11.2533 25.3508ZM5.96318 24.0206C6.67384 23.7549 7.45834 24.0978 7.71589 24.7866C7.97344 25.4754 7.60629 26.2489 6.89564 26.5146C6.18499 26.7803 5.40048 26.4374 5.14293 25.7486C4.88538 25.0598 5.25253 24.2863 5.96318 24.0206Z" fill="url(#paint1_linear_197_26)"/>
</g>
<g clip-path="url(#clip2_197_26)">
<path d="M74.741 14.9631C74.2733 14.6178 73.8025 14.2825 73.3285 13.9566C73.5327 13.6257 73.7271 13.2915 73.9216 12.9574C76.997 7.55705 77.7219 2.64927 75.569 0.253233C73.4912 -2.04328 68.8292 -1.87208 63.4213 0.429417C62.8869 0.652997 62.3559 0.899293 61.8443 1.15186C61.6641 0.814291 61.4743 0.473237 61.2812 0.142087C58.1371 -5.21752 54.2447 -8.30757 51.0915 -7.62485C48.0673 -6.97539 45.8865 -2.84132 45.175 2.98353C45.1051 3.56213 45.0481 4.13419 45.0074 4.72226C44.329 4.69516 43.654 4.6907 43.0147 4.70831C37.2446 4.81992 32.6033 6.44728 31.6503 9.38037C30.6657 12.4106 33.6406 16.738 38.4313 20.3348C38.821 20.6226 39.2108 20.9101 39.6165 21.1816C39.2815 21.717 38.969 22.249 38.66 22.8036C35.8888 27.8625 35.2967 32.3946 37.3648 34.688C39.4948 37.0551 44.4085 36.9354 49.9231 34.57C50.3609 34.3792 50.8018 34.1791 51.249 33.9593C51.5406 34.5158 51.858 35.0591 52.1786 35.5928C55.1741 40.5175 58.8122 43.2995 61.8236 42.6566C64.9382 41.9935 67.2855 37.6774 67.996 31.7234C68.0474 31.2676 68.0923 30.799 68.1306 30.3175C68.4698 30.3311 68.8024 30.3319 69.1352 30.3324C75.3418 30.2983 80.3766 28.6163 81.377 25.5375C82.3332 22.5947 79.4343 18.496 74.741 14.9631ZM64.2795 2.44773C68.9149 0.474902 72.6858 0.336459 73.9332 1.71887C75.2684 3.19429 74.6627 7.20661 72.008 11.8739C71.8327 12.1821 71.6606 12.4804 71.4691 12.7725C69.4707 11.5864 67.3991 10.5267 65.2672 9.61928C64.5916 7.40255 63.7742 5.22565 62.8055 3.11776C63.301 2.88155 63.7806 2.66146 64.2795 2.44773ZM45.6862 16.7112C45.8552 17.711 46.0372 18.7043 46.2514 19.6973C46.4722 20.7032 46.7026 21.7123 46.9686 22.7114C45.5072 22.0538 44.0806 21.3223 42.6988 20.5187C43.5805 19.259 44.5849 17.9855 45.6862 16.7112ZM47.2829 11.7968C47.1413 10.1509 47.0873 8.56561 47.1049 7.05733C48.6044 7.20096 50.1724 7.43129 51.7798 7.73878C51.0031 8.37764 50.2299 9.03909 49.4826 9.7197C48.7384 10.3906 47.9977 11.0841 47.2829 11.7968ZM47.5917 14.6137C48.6682 13.4817 49.7935 12.3978 50.9514 11.3459C52.1092 10.294 53.3127 9.29987 54.5487 8.33783C56.0403 8.70428 57.5453 9.12867 59.0604 9.62096C60.5755 10.1132 62.0522 10.6577 63.4646 11.2348C63.8925 12.7267 64.2721 14.2352 64.6034 15.7602C64.9347 17.2852 65.2079 18.8236 65.436 20.3687C64.3498 21.4976 63.2214 22.5913 62.0507 23.6497C60.8928 24.7016 59.6991 25.6989 58.4696 26.6738C56.9877 26.3105 55.4666 25.8699 53.9418 25.3744C52.4169 24.879 50.9564 24.3508 49.5571 23.7995C49.1129 22.2915 48.7268 20.7701 48.3987 19.2354C48.0705 17.7007 47.807 16.1654 47.5917 14.6137ZM63.5163 25.2856C64.2894 24.5919 65.0364 23.8789 65.7769 23.1532C65.9409 24.7634 66.0209 26.3678 66.0203 27.989C64.4045 27.8397 62.7944 27.6066 61.2031 27.2828C61.9926 26.6374 62.7593 25.9631 63.5163 25.2856ZM67.329 18.3102C67.1502 17.3072 66.9617 16.301 66.7475 15.308C66.5399 14.3278 66.3096 13.351 66.0568 12.3777C67.5573 13.0801 68.9678 13.8282 70.2622 14.6031C69.3484 15.8954 68.3696 17.1235 67.329 18.3102ZM60.8658 4.13036C61.5259 5.56891 62.1087 7.0468 62.6109 8.54142C60.7163 7.82915 58.7836 7.20117 56.8322 6.66378C58.191 5.72017 59.5507 4.87343 60.8658 4.13036ZM51.5341 -5.48386C53.475 -5.90551 56.6559 -3.36887 59.3746 1.25133C59.5479 1.54404 59.715 1.85591 59.8918 2.17105C57.8594 3.30383 55.9089 4.58136 54.0496 5.97445C51.7915 5.45561 49.5055 5.08853 47.1948 4.86389C47.2295 4.32755 47.2867 3.78778 47.344 3.24805C47.9584 -1.74933 49.7124 -5.09865 51.5341 -5.48386ZM40.8362 19.3445C40.4661 19.0955 40.109 18.8397 39.7549 18.5744C37.8976 17.2515 35.8818 15.4584 34.6208 13.5561C33.8607 12.5575 33.5411 11.294 33.7384 10.0589C34.3159 8.28153 38.1234 7.00606 43.054 6.90084C43.6707 6.88636 44.2908 6.89452 44.9077 6.91258C44.8834 9.23475 45.0076 11.5622 45.2802 13.8627C43.6883 15.5896 42.2006 17.4255 40.8362 19.3445ZM49.0681 32.542C46.989 33.4879 44.7553 34.0506 42.4764 34.1906C41.2311 34.3551 39.9721 33.9997 39.0069 33.203C37.753 31.8078 38.226 28.171 40.599 23.8417C40.8826 23.3326 41.1758 22.8265 41.4854 22.3366C43.5094 23.5096 45.6003 24.5433 47.7707 25.4311C48.4626 27.6638 49.306 29.8599 50.2813 31.9807C49.8726 32.181 49.4672 32.3711 49.0681 32.542ZM52.2144 30.9551C51.5709 29.5649 50.9652 28.0581 50.4171 26.4734C51.3374 26.8136 52.292 27.1472 53.2632 27.4627C54.2636 27.7878 55.2513 28.0858 56.2378 28.3541C54.9435 29.2972 53.6002 30.1598 52.2144 30.9551ZM63.9616 37.9932C63.4892 39.1497 62.5467 40.0676 61.3713 40.5125C59.5368 40.9042 56.623 38.6691 54.0592 34.4644C53.7649 33.9821 53.4801 33.4709 53.1887 32.9467C55.2079 31.7881 57.1422 30.4946 58.9787 29.0726C61.2627 29.6109 63.5876 29.9903 65.9338 30.205C65.9015 30.6348 65.8595 31.0614 65.811 31.4751C65.6053 33.7276 64.973 35.9381 63.9616 37.9932ZM69.1216 28.1269C68.8212 28.126 68.5209 28.1251 68.2141 28.111C68.2221 25.7729 68.0591 23.4328 67.7508 21.1099C69.3269 19.4316 70.7763 17.6476 72.1152 15.7741C72.5728 16.084 73.008 16.3972 73.4237 16.7039C77.4447 19.7284 79.8696 23.0719 79.2952 24.8395C78.6767 26.7431 74.4887 28.0991 69.1216 28.1269ZM57.9463 13.0496C60.4035 13.848 61.7476 16.4859 60.9492 18.9431C60.1508 21.4003 57.5129 22.7444 55.0557 21.946C52.5985 21.1476 51.2544 18.5097 52.0528 16.0525C52.8512 13.5953 55.4891 12.2512 57.9463 13.0496Z" fill="url(#paint2_linear_197_26)"/>
</g>
<g clip-path="url(#clip3_197_26)">
<path d="M75.6175 54.044C75.579 53.8782 75.5379 53.714 75.4944 53.5512C75.6005 53.5189 75.705 53.4841 75.8096 53.4493C77.4845 52.8732 78.5529 51.9479 78.5249 51.0096C78.4949 50.1075 77.4411 49.2398 75.829 48.6901C75.6704 48.6349 75.5084 48.5854 75.3494 48.5409C75.3725 48.4326 75.3941 48.3217 75.4131 48.2123C75.7169 46.4379 75.4362 45.0113 74.6184 44.5476C73.835 44.1017 72.5909 44.5763 71.3555 45.7035C71.233 45.8156 71.1145 45.9288 70.9965 46.0486C70.8528 45.911 70.7057 45.7791 70.5623 45.6588C69.2766 44.5631 67.9575 44.0158 67.205 44.4679C66.4276 44.935 66.2779 46.4524 66.6617 48.1634C66.6938 48.3016 66.726 48.4397 66.7646 48.5774C66.592 48.6286 66.4249 48.6836 66.2544 48.744C64.7094 49.305 63.7397 50.1745 63.7682 51.0741C63.7965 52.0016 64.896 52.9293 66.5433 53.4859C66.6746 53.5294 66.8083 53.5715 66.9471 53.6106C66.9079 53.788 66.8768 53.9677 66.8482 54.1458C66.5924 55.7969 66.8744 57.1073 67.6538 57.5521C68.4595 58.0126 69.7739 57.5307 71.033 56.3753C71.1287 56.2863 71.2254 56.1932 71.323 56.0961C71.3949 56.1649 71.4676 56.2296 71.5405 56.2943C72.9075 57.4915 74.323 58.1034 75.1129 57.6288C75.8678 57.1752 75.9918 55.7223 75.6175 54.044ZM75.6432 49.2951C77.025 49.7662 77.8774 50.468 77.8947 51.0104C77.914 51.59 77.0377 52.344 75.5908 52.8425C75.4953 52.8754 75.4023 52.9068 75.3061 52.9331C75.0878 52.2876 74.83 51.6554 74.5308 51.0445C74.7934 50.4319 75.0176 49.8004 75.1959 49.1545C75.3483 49.1994 75.4942 49.2446 75.6432 49.2951ZM68.9237 48.7844C68.7755 49.0344 68.6314 49.2855 68.4943 49.5428C68.3563 49.8041 68.2198 50.068 68.093 50.3366C67.8945 49.9102 67.7173 49.4744 67.5632 49.0316C67.99 48.9292 68.4462 48.8475 68.9237 48.7844ZM70.1845 48.0269C70.4584 47.6419 70.7403 47.2871 71.0237 46.9629C71.3258 47.2851 71.6269 47.6395 71.9223 48.0183C71.6337 48.0063 71.3416 47.9999 71.0516 48.0027C70.7641 48.004 70.4732 48.0108 70.1845 48.0269ZM69.7302 48.6987C70.176 48.6618 70.6235 48.6447 71.0723 48.641C71.521 48.6372 71.9691 48.6549 72.4184 48.6858C72.6775 49.0549 72.9288 49.4392 73.1697 49.8402C73.4107 50.2412 73.6335 50.646 73.8362 51.0455C73.6536 51.4526 73.4573 51.854 73.2473 52.2495C73.0373 52.645 72.8122 53.0322 72.5759 53.4121C72.1285 53.4465 71.6785 53.465 71.2257 53.4677C70.7769 53.4715 70.3304 53.4564 69.8802 53.4295C69.6226 53.063 69.3708 52.672 69.1283 52.2685C68.8858 51.8649 68.6635 51.4667 68.4589 51.0754C68.6409 50.6616 68.8382 50.2562 69.0507 49.8592C69.2631 49.4621 69.4898 49.0775 69.7302 48.6987ZM71.2439 54.1075C71.5419 54.1069 71.8378 54.097 72.1346 54.0831C71.8722 54.4647 71.5924 54.8287 71.2919 55.1807C70.9653 54.8347 70.6555 54.4715 70.3666 54.0923C70.6593 54.1054 70.9524 54.1077 71.2439 54.1075ZM73.3723 53.3324C73.519 53.0798 73.6641 52.8247 73.8012 52.5674C73.9373 52.3142 74.0678 52.0574 74.1927 51.7969C74.3915 52.2407 74.5622 52.6769 74.7023 53.0965C74.2625 53.1998 73.8203 53.2766 73.3723 53.3324ZM74.583 48.998C74.4611 49.4386 74.315 49.8727 74.1482 50.2948C73.8648 49.7724 73.5574 49.2608 73.2292 48.7654C73.702 48.8242 74.1569 48.9041 74.583 48.998ZM74.3187 45.0985C74.8223 45.3836 75.0497 46.552 74.7895 48.0832C74.7733 48.1804 74.7522 48.2806 74.7325 48.3834C74.077 48.2349 73.4127 48.1338 72.7469 48.0756C72.348 47.5246 71.9148 47.0012 71.4499 46.5039C71.5569 46.3941 71.6694 46.288 71.782 46.1819C72.8427 45.2157 73.8479 44.8286 74.3187 45.0985ZM67.3725 48.4151C67.3375 48.2892 67.3066 48.1643 67.2781 48.038C67.1161 47.3901 67.0064 46.6094 67.0825 45.9515C67.1009 45.587 67.2649 45.2506 67.5371 45.0206C67.993 44.7466 69.0641 45.2086 70.1646 46.1427C70.3025 46.2592 70.4369 46.3814 70.5688 46.505C70.1332 47.0047 69.7291 47.5343 69.3626 48.0869C68.6936 48.1531 68.0272 48.2631 67.3725 48.4151ZM66.7316 52.8794C66.1005 52.6813 65.5066 52.37 64.981 51.9581C64.6775 51.7522 64.4673 51.4306 64.4034 51.0702C64.387 50.5238 65.1646 49.8257 66.4871 49.3459C66.6436 49.2903 66.8017 49.2373 66.9603 49.191C67.1867 49.8386 67.4536 50.469 67.7649 51.0831C67.5028 51.7023 67.2808 52.343 67.1016 52.993C66.9749 52.9571 66.8508 52.9197 66.7316 52.8794ZM67.7155 53.1454C67.832 52.7185 67.9784 52.2737 68.1519 51.8231C68.2906 52.0756 68.4381 52.3333 68.5926 52.5904C68.7517 52.8551 68.913 53.1116 69.0795 53.3613C68.621 53.315 68.1667 53.2416 67.7155 53.1454ZM68.9867 56.9541C68.6688 57.1136 68.2921 57.1301 67.952 56.9986C67.4772 56.7276 67.2525 55.6766 67.4696 54.2657C67.4945 54.1038 67.5268 53.9375 67.56 53.7671C68.2174 53.9073 68.8812 54.0018 69.5473 54.0494C69.9483 54.6096 70.3877 55.1432 70.8622 55.6452C70.7755 55.7323 70.6873 55.8169 70.6 55.8973C70.1375 56.3466 69.5892 56.704 68.9867 56.9541ZM71.9462 55.8126C71.8805 55.7541 71.8149 55.6956 71.7502 55.633C72.1853 55.1267 72.5831 54.5867 72.946 54.0224C73.6025 53.9637 74.2509 53.8576 74.8916 53.7105C74.9345 53.8666 74.9718 54.0191 75.0062 54.1664C75.3272 55.6038 75.2393 56.8006 74.7858 57.0731C74.2975 57.3665 73.128 56.8482 71.9462 55.8126ZM72.2901 50.3687C72.6809 51.019 72.4867 51.8529 71.8564 52.2316C71.226 52.6104 70.3986 52.3903 70.0078 51.74C69.6171 51.0897 69.8112 50.2558 70.4416 49.8771C71.072 49.4983 71.8994 49.7183 72.2901 50.3687Z" fill="url(#paint3_linear_197_26)"/>
</g>
<path d="M121.305 44.9903C120.863 44.8416 120.42 44.7013 119.977 44.5691C120.05 44.2636 120.116 43.958 120.182 43.6524C121.191 38.7304 120.526 34.7745 118.287 33.4697C116.129 32.2226 112.61 33.5194 109.05 36.6409C108.697 36.9464 108.353 37.2686 108.025 37.5907C107.803 37.3761 107.573 37.1612 107.344 36.9548C103.611 33.6183 99.8707 32.2144 97.6312 33.5275C95.482 34.7828 94.8422 38.5073 95.7445 43.1651C95.8348 43.6276 95.9332 44.0819 96.048 44.5443C95.523 44.693 95.0062 44.8583 94.5223 45.0316C90.1418 46.5594 87 48.9709 87 51.4649C87 54.0416 90.3469 56.6265 94.8996 58.1956C95.2687 58.3196 95.6379 58.4433 96.0152 58.5507C95.8922 59.0462 95.7855 59.5335 95.6871 60.0372C94.8258 64.6207 95.4984 68.2544 97.6477 69.5015C99.8625 70.7898 103.587 69.4698 107.213 66.2724C107.5 66.0162 107.787 65.7521 108.074 65.4713C108.435 65.8265 108.812 66.165 109.189 66.4954C112.7 69.5345 116.17 70.765 118.311 69.518C120.526 68.2297 121.248 64.3234 120.313 59.5665C120.239 59.2031 120.157 58.8315 120.067 58.4516C120.329 58.3773 120.584 58.2948 120.838 58.212C125.571 56.6348 129 54.0829 129 51.4649C129 48.9626 125.768 46.5346 121.305 44.9903ZM110.207 37.9788C113.258 35.3031 116.105 34.2542 117.401 35.0057C118.787 35.8068 119.32 39.0442 118.451 43.2973C118.393 43.5781 118.336 43.8506 118.262 44.1231C116.441 43.7102 114.595 43.4129 112.741 43.2477C111.675 41.7117 110.51 40.2416 109.247 38.8625C109.567 38.557 109.879 38.2679 110.207 37.9788ZM99.5426 53.5956C99.9199 54.3224 100.305 55.0409 100.716 55.7511C101.134 56.4696 101.561 57.1881 102.012 57.8901C100.732 57.7495 99.4605 57.5433 98.2055 57.2706C98.5664 56.0814 99.0176 54.8509 99.5426 53.5956ZM99.5426 49.4168C99.0258 48.1863 98.591 46.9806 98.2301 45.8161C99.4113 45.5518 100.666 45.3371 101.971 45.172C101.536 45.8574 101.109 46.5594 100.707 47.2696C100.305 47.9716 99.9117 48.6901 99.5426 49.4168ZM100.478 51.5062C101.019 50.3666 101.61 49.2516 102.233 48.1533C102.857 47.0549 103.529 45.9895 104.235 44.9407C105.465 44.8498 106.72 44.8001 108 44.8001C109.28 44.8001 110.543 44.8498 111.765 44.9407C112.462 45.9813 113.127 47.0466 113.759 48.1368C114.39 49.2269 114.981 50.3418 115.539 51.4732C114.989 52.6129 114.398 53.736 113.767 54.8426C113.143 55.941 112.479 57.0064 111.782 58.0635C110.559 58.1544 109.288 58.1956 108 58.1956C106.712 58.1956 105.465 58.1544 104.259 58.08C103.546 57.0312 102.873 55.9576 102.241 54.8592C101.61 53.7608 101.027 52.6459 100.478 51.5062ZM115.293 55.7346C115.711 55.0078 116.105 54.2728 116.49 53.5296C117.015 54.727 117.475 55.941 117.877 57.1881C116.605 57.477 115.317 57.7001 114.021 57.8488C114.464 57.155 114.882 56.4448 115.293 55.7346ZM116.474 49.4168C116.088 48.6901 115.695 47.9633 115.284 47.2531C114.882 46.5511 114.464 45.8574 114.029 45.172C115.35 45.3372 116.613 45.5601 117.795 45.8326C117.417 47.0549 116.974 48.2441 116.474 49.4168ZM108.016 40.126C108.878 41.0675 109.69 42.0585 110.445 43.0826C108.82 43.0082 107.188 43.0082 105.564 43.0826C106.368 42.0172 107.196 41.0262 108.016 40.126ZM98.5008 35.0636C99.8789 34.2542 102.939 35.4103 106.162 38.2844C106.368 38.4662 106.573 38.6643 106.786 38.8625C105.514 40.2416 104.341 41.7117 103.267 43.2477C101.413 43.413 99.5754 43.7019 97.7543 44.1066C97.6477 43.6854 97.5574 43.256 97.4672 42.8266C96.6961 38.8294 97.2047 35.8151 98.5008 35.0636ZM96.491 56.833C96.1465 56.734 95.8102 56.6265 95.4738 56.5109C93.7266 55.9576 91.7414 55.0822 90.3059 53.9343C89.4773 53.3562 88.9195 52.4642 88.7637 51.465C88.7637 49.9537 91.3559 48.0212 95.0965 46.7081C95.5641 46.5428 96.0398 46.3941 96.5156 46.2539C97.0734 48.046 97.7461 49.805 98.5254 51.5063C97.7379 53.2323 97.057 55.0161 96.491 56.833ZM106.056 64.9263C104.702 66.1733 103.136 67.1643 101.429 67.8415C100.519 68.2792 99.4687 68.3205 98.5336 67.949C97.2293 67.1892 96.6879 64.2739 97.4262 60.3512C97.5164 59.8887 97.6148 59.4262 97.7297 58.972C99.5672 59.3684 101.421 59.6409 103.3 59.7813C104.382 61.3257 105.572 62.804 106.843 64.1914C106.581 64.4476 106.318 64.6951 106.056 64.9263ZM108.066 62.9195C107.229 62.011 106.392 61.0035 105.58 59.9216C106.368 59.9533 107.18 59.9713 108 59.9713C108.845 59.9713 109.673 59.9537 110.494 59.9135C109.739 60.9624 108.927 61.9615 108.066 62.9195ZM118.787 65.397C118.713 66.4045 118.221 67.346 117.434 67.9819C116.129 68.7417 113.348 67.7508 110.346 65.1575C110.002 64.8601 109.657 64.5381 109.304 64.2078C110.559 62.8121 111.716 61.3338 112.766 59.7812C114.645 59.6244 116.515 59.3353 118.361 58.9141C118.443 59.2527 118.516 59.5913 118.582 59.9216C118.984 61.7055 119.05 63.5636 118.787 65.397ZM120.28 56.5191C120.05 56.5935 119.821 56.6678 119.583 56.7337C119.009 54.9333 118.303 53.1743 117.491 51.4648C118.279 49.78 118.943 48.0458 119.501 46.2702C119.927 46.3942 120.337 46.5264 120.731 46.6584C124.554 47.9797 127.236 49.9452 127.236 51.4483C127.236 53.067 124.373 55.1565 120.28 56.5191ZM108 47.7156C110.075 47.7156 111.757 49.4086 111.757 51.498C111.757 53.5874 110.075 55.2804 108 55.2804C105.925 55.2804 104.243 53.5874 104.243 51.498C104.243 49.4086 105.925 47.7156 108 47.7156Z" fill="url(#paint4_linear_197_26)"/>
<g clip-path="url(#clip4_197_26)">
<path d="M110.498 13.5956C110.386 13.4673 110.273 13.3416 110.158 13.2183C110.236 13.1401 110.312 13.0602 110.388 12.9804C111.597 11.6854 112.106 10.3668 111.64 9.55148C111.19 8.76904 109.853 8.49767 108.171 8.76913C108.005 8.79489 107.839 8.82721 107.678 8.8626C107.647 8.75616 107.614 8.64809 107.58 8.54256C107.015 6.8332 106.097 5.70535 105.157 5.67985C104.256 5.65391 103.381 6.65715 102.819 8.2323C102.763 8.38882 102.712 8.54439 102.664 8.70554C102.473 8.65156 102.281 8.60411 102.098 8.56527C100.448 8.20144 99.0264 8.33745 98.5743 9.0899C98.1072 9.86728 98.6874 11.2773 99.8296 12.6079C99.9228 12.7148 100.016 12.8216 100.115 12.9251C99.9864 13.0514 99.8647 13.1783 99.7425 13.3118C98.6417 14.5324 98.1938 15.7554 98.6412 16.5363C99.1016 17.342 100.508 17.6449 102.224 17.363C102.36 17.3397 102.498 17.3141 102.639 17.2835C102.688 17.4585 102.744 17.6317 102.803 17.8025C103.352 19.3804 104.216 20.405 105.113 20.4319C106.041 20.4602 106.975 19.4176 107.544 17.8064C107.587 17.6828 107.629 17.5553 107.669 17.4237C107.765 17.4507 107.86 17.4737 107.954 17.4966C109.724 17.9119 111.261 17.7876 111.735 16.9978C112.189 16.2428 111.616 14.9017 110.498 13.5956ZM108.291 9.39054C109.732 9.15783 110.814 9.37733 111.084 9.8481C111.373 10.3508 110.954 11.4279 109.91 12.5473C109.841 12.6213 109.774 12.6927 109.701 12.761C109.206 12.2935 108.681 11.8563 108.13 11.4574C108.074 10.7932 107.976 10.1304 107.83 9.47644C107.986 9.44451 108.136 9.41597 108.291 9.39054ZM102.118 12.0943C102.105 12.3846 102.095 12.6739 102.095 12.9654C102.096 13.261 102.099 13.5581 102.114 13.8548C101.738 13.5714 101.377 13.2698 101.033 12.9513C101.362 12.6604 101.726 12.3741 102.118 12.0943ZM102.876 10.8335C102.937 10.365 103.019 9.91935 103.117 9.50008C103.535 9.64276 103.968 9.81429 104.406 10.01C104.146 10.135 103.885 10.2664 103.63 10.405C103.377 10.5411 103.123 10.6838 102.876 10.8335ZM102.79 11.64C103.166 11.3981 103.554 11.1729 103.948 10.9589C104.343 10.7449 104.746 10.5502 105.158 10.3666C105.56 10.5708 105.962 10.7921 106.363 11.0331C106.764 11.274 107.151 11.5268 107.517 11.7844C107.547 12.2296 107.562 12.6761 107.563 13.124C107.563 13.5718 107.546 14.0193 107.516 14.4657C107.137 14.7061 106.748 14.9337 106.349 15.1487C105.955 15.3627 105.554 15.559 105.144 15.7466C104.744 15.5439 104.338 15.3169 103.935 15.0745C103.531 14.832 103.148 14.5848 102.783 14.3353C102.75 13.8845 102.734 13.4339 102.735 12.9836C102.736 12.5333 102.756 12.0873 102.79 11.64ZM106.666 15.705C106.929 15.5645 107.185 15.4169 107.441 15.2653C107.388 15.7254 107.312 16.1782 107.212 16.6301C106.761 16.4779 106.317 16.3027 105.884 16.1035C106.149 15.9776 106.409 15.8421 106.666 15.705ZM108.181 14.0214C108.192 13.7295 108.201 13.4361 108.201 13.1446C108.202 12.8572 108.197 12.5691 108.185 12.2804C108.569 12.579 108.924 12.8841 109.245 13.1887C108.905 13.4864 108.551 13.7618 108.181 14.0214ZM107.215 9.62597C107.315 10.0722 107.389 10.5241 107.44 10.9751C106.945 10.6469 106.433 10.3395 105.911 10.0562C106.356 9.8861 106.795 9.74311 107.215 9.62597ZM105.151 6.30701C105.73 6.32231 106.479 7.24719 106.968 8.72129C107 8.81476 107.028 8.91314 107.059 9.01309C106.41 9.18978 105.776 9.41242 105.161 9.67353C104.55 9.37433 103.922 9.11553 103.278 8.89475C103.321 8.7476 103.371 8.60104 103.42 8.4545C103.903 7.10338 104.609 6.28971 105.151 6.30701ZM100.575 12.4964C100.485 12.4017 100.399 12.3059 100.315 12.2077C99.8677 11.7118 99.4043 11.0739 99.1626 10.4573C99.0078 10.1269 98.9947 9.7528 99.127 9.42198C99.4009 8.96602 100.564 8.87105 101.974 9.17919C102.15 9.21736 102.326 9.26208 102.501 9.30934C102.351 9.95505 102.243 10.6124 102.178 11.2724C101.619 11.6449 101.082 12.0548 100.575 12.4964ZM102.105 16.7391C101.455 16.8604 100.784 16.8644 100.127 16.7475C99.7624 16.7081 99.4259 16.5229 99.2002 16.2347C98.9292 15.7599 99.2881 14.7784 100.231 13.7339C100.343 13.6114 100.457 13.4904 100.576 13.375C101.08 13.8406 101.611 14.2718 102.174 14.6679C102.234 15.3377 102.338 16.0076 102.485 16.6656C102.357 16.6935 102.229 16.7187 102.105 16.7391ZM103.099 16.512C103.001 16.0804 102.922 15.6189 102.863 15.1396C103.104 15.2974 103.356 15.4557 103.613 15.6102C103.877 15.7693 104.14 15.92 104.405 16.0623C103.978 16.2366 103.542 16.3852 103.099 16.512ZM106.009 19.2781C105.804 19.5682 105.479 19.7596 105.117 19.8032C104.57 19.7868 103.878 18.9643 103.408 17.6166C103.354 17.462 103.304 17.3 103.253 17.1339C103.9 16.9491 104.53 16.7209 105.141 16.4502C105.758 16.7566 106.396 17.0215 107.051 17.2419C107.015 17.3595 106.977 17.4756 106.938 17.5876C106.74 18.2015 106.424 18.7744 106.009 19.2781ZM108.087 16.8808C108.001 16.86 107.916 16.8392 107.829 16.8142C107.976 16.163 108.073 15.4994 108.129 14.8308C108.681 14.4708 109.204 14.0726 109.7 13.642C109.811 13.7597 109.916 13.8768 110.015 13.9908C110.974 15.1091 111.458 16.2072 111.186 16.6607C110.892 17.149 109.616 17.2404 108.087 16.8808ZM105.834 11.9127C106.485 12.3034 106.705 13.1308 106.326 13.7612C105.947 14.3915 105.113 14.5857 104.463 14.1949C103.813 13.8042 103.593 12.9768 103.971 12.3464C104.35 11.716 105.184 11.5219 105.834 11.9127Z" fill="url(#paint5_linear_197_26)"/>
</g>
</g>
<defs>
<linearGradient id="paint0_linear_197_26" x1="3.43796" y1="42.0679" x2="0.562433" y2="71.9313" gradientUnits="userSpaceOnUse">
<stop stop-color="#D805A9"/>
<stop offset="1" stop-color="#FAFF00"/>
</linearGradient>
<linearGradient id="paint1_linear_197_26" x1="4.14929" y1="19.1691" x2="8.71003" y2="31.3674" gradientUnits="userSpaceOnUse">
<stop stop-color="#D805A9"/>
<stop offset="1" stop-color="#FAFF00"/>
</linearGradient>
<linearGradient id="paint2_linear_197_26" x1="63.5694" y1="-4.25637" x2="49.4311" y2="39.2568" gradientUnits="userSpaceOnUse">
<stop stop-color="#D805A9"/>
<stop offset="1" stop-color="#FAFF00"/>
</linearGradient>
<linearGradient id="paint3_linear_197_26" x1="76.7298" y1="47.701" x2="65.5669" y2="54.4084" gradientUnits="userSpaceOnUse">
<stop stop-color="#D805A9"/>
<stop offset="1" stop-color="#FAFF00"/>
</linearGradient>
<linearGradient id="paint4_linear_197_26" x1="108" y1="33" x2="108" y2="70" gradientUnits="userSpaceOnUse">
<stop stop-color="#D805A9"/>
<stop offset="1" stop-color="#FAFF00"/>
</linearGradient>
<linearGradient id="paint5_linear_197_26" x1="108.502" y1="7.47297" x2="101.795" y2="18.6358" gradientUnits="userSpaceOnUse">
<stop stop-color="#D805A9"/>
<stop offset="1" stop-color="#FAFF00"/>
</linearGradient>
<clipPath id="clip0_197_26">
<rect width="120" height="60" fill="white"/>
</clipPath>
<clipPath id="clip1_197_26">
<rect width="17.9129" height="17.3631" fill="white" transform="translate(-5 20.2732) rotate(-20.5)"/>
</clipPath>
<clipPath id="clip2_197_26">
<rect width="61" height="61" fill="white" transform="translate(36.918 -20.9321) rotate(18)"/>
</clipPath>
<clipPath id="clip3_197_26">
<rect width="17.9129" height="17.3631" fill="white" transform="translate(73.9771 38.9062) rotate(59)"/>
</clipPath>
<clipPath id="clip4_197_26">
<rect width="17.9129" height="17.3631" fill="white" transform="translate(101.943 1) rotate(31)"/>
</clipPath>
</defs>
</svg>
